Coordinates
version=1
nRows=8
nColumns=46
inDegrees=yes

Units are S.I. units (second, meters, Newtons, ...)
Angles are in degrees.

endheader
time	pelvis_tilt	pelvis_list	pelvis_rotation	pelvis_tx	pelvis_ty	pelvis_tz	bb_angle	bb_tx	bb_ty	bb_tz	hip_flexion_r	hip_adduction_r	hip_rotation_r	knee_angle_r	knee_angle_r_beta	ankle_angle_r	subtalar_angle_r	mtp_angle_r	crank_angle_r	hip_flexion_l	hip_adduction_l	hip_rotation_l	knee_angle_l	knee_angle_l_beta	ankle_angle_l	subtalar_angle_l	mtp_angle_l	crank_angle_l	lumbar_extension	lumbar_bending	lumbar_rotation	arm_flex_r	arm_add_r	arm_rot_r	elbow_flex_r	pro_sup_r	wrist_flex_r	wrist_dev_r	arm_flex_l	arm_add_l	arm_rot_l	elbow_flex_l	pro_sup_l	wrist_flex_l	wrist_dev_l
      7.50500000	    -24.52744688	      9.23197908	      8.13178676	      0.42790887	      1.08515081	     -0.30797379	      0.00000000	      0.50000000	      0.00000000	      0.25000000	     28.47592511	    -17.50133289	     -4.67001937	     24.24315890	      0.42312294	    -25.84154764	      1.24781644	      0.00000000	      0.00000000	     82.49118491	      7.42361504	      1.22803455	    113.20189223	      1.97574574	     -8.21632176	     -7.31614193	      0.00000000	      0.00000000	    -67.37933647	     -4.70098436	     -2.67826424	     33.31288453	    -23.76000912	      4.19859085	    102.94650766	     47.91190801	      0.00000000	      0.00000000	     63.02783608	    -21.54888260	     42.11534568	     90.63999851	     47.73664577	      0.00000000	      0.00000000
      7.51000000	    -24.50167814	      9.09635882	      8.43618697	      0.42798841	      1.08732999	     -0.30757845	      0.00000000	      0.50000000	      0.00000000	      0.25000000	     27.68967353	    -17.53391931	     -5.52135964	     24.10794968	      0.42076310	    -26.57795015	      1.51934773	      0.00000000	      0.00000000	     82.96147665	      7.10489406	      0.84485373	    112.44029973	      1.96245344	     -8.24391087	     -7.99531829	      0.00000000	      0.00000000	    -67.90963907	     -4.63587600	     -3.49171189	     34.24058808	    -23.32179249	      4.74502596	    102.20602595	     47.86276044	      0.00000000	      0.00000000	     63.70116463	    -23.13436930	     43.31483835	     92.42750976	     48.13763728	      0.00000000	      0.00000000
      7.51500000	    -24.81284423	      8.82497967	      8.56696950	      0.42777004	      1.08910553	     -0.30698095	      0.00000000	      0.50000000	      0.00000000	      0.25000000	     27.56387164	    -17.34709984	     -5.95878592	     24.38281676	      0.42556043	    -27.03293830	      1.63875248	      0.00000000	      0.00000000	     83.63954631	      6.48152270	      0.59469084	    111.57805463	      1.94740443	     -7.76101638	     -8.05705236	      0.00000000	      0.00000000	    -68.02325527	     -4.73650802	     -3.58529065	     34.45639995	    -23.30453432	      4.77803496	    102.13921735	     47.85492340	      0.00000000	      0.00000000	     64.14174756	    -23.26545556	     43.18671631	     92.59627571	     48.14659288	      0.00000000	      0.00000000
      7.52000000	    -25.09054488	      8.67346895	      8.56886717	      0.42762643	      1.09109730	     -0.30620148	      0.00000000	      0.50000000	      0.00000000	      0.25000000	     27.64539014	    -17.20158588	     -6.18147319	     25.01492828	      0.43659286	    -27.60885515	      1.26091770	      0.00000000	      0.00000000	     84.04198815	      5.88715133	      0.29063290	    110.57339335	      1.92986978	     -6.96128426	     -7.89624948	      0.00000000	      0.00000000	    -68.26096235	     -4.88705541	     -4.78378198	     35.96515582	    -22.35230057	      5.95393819	    100.61818994	     47.77380067	      0.00000000	      0.00000000	     64.32035483	    -25.33058269	     43.48935068	     94.91537768	     48.49938083	      0.00000000	      0.00000000
      7.52500000	    -25.39144081	      8.39843204	      8.53774436	      0.42734132	      1.09306200	     -0.30545152	      0.00000000	      0.50000000	      0.00000000	      0.25000000	     27.93231458	    -16.93244081	     -6.37336116	     25.96194995	      0.45312151	    -27.82995418	      0.84226535	      0.00000000	      0.00000000	     84.29750111	      5.20677757	      0.11744188	    109.42999529	      1.90991372	     -5.85481695	     -7.50721475	      0.00000000	      0.00000000	    -68.46993185	     -5.08108948	     -5.04802500	     36.40341119	    -22.16075113	      6.03718562	    100.44142779	     47.77834875	      0.00000000	      0.00000000	     64.75568656	    -25.88356717	     43.44525695	     95.76628177	     48.60214178	      0.00000000	      0.00000000
      7.53000000	    -25.66147904	      8.17501828	      8.50029280	      0.42684352	      1.09508657	     -0.30501720	      0.00000000	      0.50000000	      0.00000000	      0.25000000	     28.41904694	    -16.77915179	     -6.59138598	     27.30244492	      0.47651756	    -27.91754127	      0.31174409	      0.00000000	      0.00000000	     84.28166119	      4.59874761	     -0.12564110	    108.08947238	      1.88651718	     -4.48927164	     -7.14210829	      0.00000000	      0.00000000	    -68.70742789	     -5.25589515	     -5.28245077	     36.83535400	    -22.11977169	      6.05960188	    100.32738068	     47.76883740	      0.00000000	      0.00000000	     65.20667677	    -26.24509475	     43.41675529	     96.25974661	     48.66381413	      0.00000000	      0.00000000
      7.53500000	    -25.92979104	      7.93004147	      8.36163689	      0.42643859	      1.09709352	     -0.30455060	      0.00000000	      0.50000000	      0.00000000	      0.25000000	     29.02778660	    -16.52392326	     -6.45315255	     28.81405094	      0.50290006	    -27.94249788	     -0.36354324	      0.00000000	      0.00000000	     84.05564379	      3.92998089	     -0.30171095	    106.57265341	      1.86004369	     -2.82215746	     -6.47848586	      0.00000000	      0.00000000	    -68.96383073	     -5.48857501	     -5.50985221	     37.29379466	    -22.04304803	      6.07914584	    100.18220660	     47.75263346	      0.00000000	      0.00000000	     65.66868502	    -26.67845100	     43.41003746	     97.00156116	     48.76738797	      0.00000000	      0.00000000
      7.54000000	    -26.17188104	      7.59334432	      8.15772247	      0.42612198	      1.09904175	     -0.30402081	      0.00000000	      0.50000000	      0.00000000	      0.25000000	     29.76237411	    -16.14868100	     -6.26010892	     30.51275915	      0.53254811	    -27.97624718	     -1.03661961	      0.00000000	      0.00000000	     83.61277880	      3.21172818	     -0.38598975	    104.90209781	      1.83088700	     -0.99458525	     -5.85607316	      0.00000000	      0.00000000	    -69.22861903	     -5.70109415	     -5.56449246	     37.78531742	    -22.00232444	      6.09532423	    100.05243080	     47.73516651	      0.00000000	      0.00000000	     66.09378286	    -27.06374101	     43.30741841	     97.76632017	     48.86651517	      0.00000000	      0.00000000
